<mxfile host="app.diagrams.net" modified="2023-08-21T12:31:15.883Z" agent="Mozilla/5.0 (Windows NT 10.0; Win64; x64) AppleWebKit/537.36 (KHTML, like Gecko) Chrome/116.0.0.0 Safari/537.36" etag="Hg49MSa49YNoLpQoiIYk" version="21.6.8" type="device">
  <diagram name="Page-1" id="e7e014a7-5840-1c2e-5031-d8a46d1fe8dd">
    <mxGraphModel dx="880" dy="1304" grid="1" gridSize="10" guides="1" tooltips="1" connect="1" arrows="1" fold="1" page="1" pageScale="1" pageWidth="1169" pageHeight="826" background="none" math="0" shadow="0">
      <root>
        <mxCell id="0" />
        <mxCell id="1" parent="0" />
        <mxCell id="8icTBMnaCwf8voEp2aKM-41" value="Aluno" style="shape=umlActor;verticalLabelPosition=bottom;verticalAlign=top;html=1;outlineConnect=0;" parent="1" vertex="1">
          <mxGeometry x="260" y="120" width="30" height="60" as="geometry" />
        </mxCell>
        <mxCell id="8icTBMnaCwf8voEp2aKM-42" value="&lt;br&gt;Realizar matrícula" style="ellipse;whiteSpace=wrap;html=1;verticalAlign=middle;align=center;horizontal=1;" parent="1" vertex="1">
          <mxGeometry x="370" y="40" width="130" height="70" as="geometry" />
        </mxCell>
        <mxCell id="8icTBMnaCwf8voEp2aKM-45" value="" style="endArrow=none;html=1;rounded=0;entryX=0;entryY=1;entryDx=0;entryDy=0;" parent="1" target="8icTBMnaCwf8voEp2aKM-42" edge="1">
          <mxGeometry width="50" height="50" relative="1" as="geometry">
            <mxPoint x="290" y="150" as="sourcePoint" />
            <mxPoint x="560" y="60" as="targetPoint" />
          </mxGeometry>
        </mxCell>
        <mxCell id="8icTBMnaCwf8voEp2aKM-46" value="&lt;br&gt;Cancelar matrícula" style="ellipse;whiteSpace=wrap;html=1;verticalAlign=middle;" parent="1" vertex="1">
          <mxGeometry x="375" y="140" width="150" height="80" as="geometry" />
        </mxCell>
        <mxCell id="8icTBMnaCwf8voEp2aKM-48" value="" style="endArrow=none;html=1;rounded=0;entryX=0;entryY=0.5;entryDx=0;entryDy=0;" parent="1" source="8icTBMnaCwf8voEp2aKM-41" target="8icTBMnaCwf8voEp2aKM-46" edge="1">
          <mxGeometry width="50" height="50" relative="1" as="geometry">
            <mxPoint x="510" y="300" as="sourcePoint" />
            <mxPoint x="560" y="250" as="targetPoint" />
          </mxGeometry>
        </mxCell>
        <mxCell id="8icTBMnaCwf8voEp2aKM-49" value="Professor" style="shape=umlActor;verticalLabelPosition=bottom;verticalAlign=top;html=1;outlineConnect=0;" parent="1" vertex="1">
          <mxGeometry x="260" y="290" width="30" height="60" as="geometry" />
        </mxCell>
        <mxCell id="8icTBMnaCwf8voEp2aKM-52" value="Visualizar alunos matriculados&lt;br&gt;&lt;div style=&quot;&quot;&gt;&lt;div style=&quot;&quot;&gt;&lt;br&gt;&lt;/div&gt;&lt;/div&gt;" style="ellipse;whiteSpace=wrap;html=1;verticalAlign=middle;align=center;" parent="1" vertex="1">
          <mxGeometry x="380" y="260" width="120" height="80" as="geometry" />
        </mxCell>
        <mxCell id="8icTBMnaCwf8voEp2aKM-55" value="" style="endArrow=none;html=1;rounded=0;entryX=0;entryY=0.5;entryDx=0;entryDy=0;" parent="1" source="8icTBMnaCwf8voEp2aKM-49" target="8icTBMnaCwf8voEp2aKM-52" edge="1">
          <mxGeometry width="50" height="50" relative="1" as="geometry">
            <mxPoint x="510" y="300" as="sourcePoint" />
            <mxPoint x="560" y="250" as="targetPoint" />
          </mxGeometry>
        </mxCell>
        <mxCell id="8icTBMnaCwf8voEp2aKM-59" value="Secretaria" style="shape=umlActor;verticalLabelPosition=bottom;verticalAlign=top;html=1;outlineConnect=0;" parent="1" vertex="1">
          <mxGeometry x="260" y="540" width="30" height="60" as="geometry" />
        </mxCell>
        <mxCell id="8icTBMnaCwf8voEp2aKM-61" value="Gerenciar alunos&lt;br&gt;" style="ellipse;whiteSpace=wrap;html=1;" parent="1" vertex="1">
          <mxGeometry x="415" y="400" width="120" height="80" as="geometry" />
        </mxCell>
        <mxCell id="8icTBMnaCwf8voEp2aKM-62" value="Gerenciar professores" style="ellipse;whiteSpace=wrap;html=1;" parent="1" vertex="1">
          <mxGeometry x="400" y="500" width="120" height="80" as="geometry" />
        </mxCell>
        <mxCell id="8icTBMnaCwf8voEp2aKM-64" value="Gerenciar disciplinas" style="ellipse;whiteSpace=wrap;html=1;" parent="1" vertex="1">
          <mxGeometry x="400" y="600" width="120" height="80" as="geometry" />
        </mxCell>
        <mxCell id="8icTBMnaCwf8voEp2aKM-68" value="" style="endArrow=none;html=1;rounded=0;entryX=0.05;entryY=0.688;entryDx=0;entryDy=0;entryPerimeter=0;" parent="1" target="8icTBMnaCwf8voEp2aKM-61" edge="1">
          <mxGeometry width="50" height="50" relative="1" as="geometry">
            <mxPoint x="290" y="570" as="sourcePoint" />
            <mxPoint x="560" y="420" as="targetPoint" />
          </mxGeometry>
        </mxCell>
        <mxCell id="8icTBMnaCwf8voEp2aKM-69" value="" style="endArrow=none;html=1;rounded=0;entryX=-0.008;entryY=0.613;entryDx=0;entryDy=0;entryPerimeter=0;" parent="1" target="8icTBMnaCwf8voEp2aKM-62" edge="1">
          <mxGeometry width="50" height="50" relative="1" as="geometry">
            <mxPoint x="290" y="570" as="sourcePoint" />
            <mxPoint x="560" y="420" as="targetPoint" />
          </mxGeometry>
        </mxCell>
        <mxCell id="8icTBMnaCwf8voEp2aKM-70" value="" style="endArrow=none;html=1;rounded=0;" parent="1" target="8icTBMnaCwf8voEp2aKM-64" edge="1">
          <mxGeometry width="50" height="50" relative="1" as="geometry">
            <mxPoint x="290" y="570" as="sourcePoint" />
            <mxPoint x="560" y="420" as="targetPoint" />
          </mxGeometry>
        </mxCell>
        <mxCell id="5EaXBxKGs_tmeokrfRbl-1" value="Matricular em disciplina obrigatória&amp;nbsp;" style="ellipse;whiteSpace=wrap;html=1;" vertex="1" parent="1">
          <mxGeometry x="620" y="-40" width="120" height="80" as="geometry" />
        </mxCell>
        <mxCell id="5EaXBxKGs_tmeokrfRbl-5" value="Matricular em disciplina optativa" style="ellipse;whiteSpace=wrap;html=1;" vertex="1" parent="1">
          <mxGeometry x="630" y="110" width="120" height="80" as="geometry" />
        </mxCell>
        <mxCell id="5EaXBxKGs_tmeokrfRbl-10" value="&amp;lt;&amp;lt; include &amp;gt;&amp;gt;" style="edgeStyle=elbowEdgeStyle;fontSize=12;html=1;endFill=0;startFill=0;endSize=6;startSize=6;dashed=1;dashPattern=1 4;endArrow=openThin;startArrow=none;rounded=0;entryX=0;entryY=0.5;entryDx=0;entryDy=0;exitX=0.915;exitY=0.129;exitDx=0;exitDy=0;exitPerimeter=0;elbow=horizontal;" edge="1" parent="1" target="5EaXBxKGs_tmeokrfRbl-1">
          <mxGeometry width="160" relative="1" as="geometry">
            <mxPoint x="480.00000000000006" y="49.02999999999997" as="sourcePoint" />
            <mxPoint x="571.05" as="targetPoint" />
          </mxGeometry>
        </mxCell>
        <mxCell id="5EaXBxKGs_tmeokrfRbl-11" value="&amp;lt;&amp;lt; extends &amp;gt;&amp;gt;" style="edgeStyle=elbowEdgeStyle;fontSize=12;html=1;endFill=0;startFill=0;endSize=6;startSize=6;dashed=1;dashPattern=1 4;endArrow=openThin;startArrow=none;rounded=0;entryX=1.008;entryY=0.614;entryDx=0;entryDy=0;exitX=0;exitY=0.5;exitDx=0;exitDy=0;elbow=horizontal;entryPerimeter=0;" edge="1" parent="1" source="5EaXBxKGs_tmeokrfRbl-5" target="8icTBMnaCwf8voEp2aKM-42">
          <mxGeometry width="160" relative="1" as="geometry">
            <mxPoint x="370" y="150" as="sourcePoint" />
            <mxPoint x="530" y="150" as="targetPoint" />
          </mxGeometry>
        </mxCell>
        <mxCell id="5EaXBxKGs_tmeokrfRbl-13" value="" style="rounded=0;whiteSpace=wrap;html=1;fillColor=none;" vertex="1" parent="1">
          <mxGeometry x="330" y="-40" width="440" height="760" as="geometry" />
        </mxCell>
      </root>
    </mxGraphModel>
  </diagram>
</mxfile>
